<?xml version="1.0"?>
<svg xmlns="http://www.w3.org/2000/svg" id="Layer_1" enable-background="new 0 0 512 512" height="512px" viewBox="0 0 512 512" width="512px"><g><g><g><path d="m256 405.125c-82.228 0-149.125-66.897-149.125-149.125s66.897-149.125 149.125-149.125 149.125 66.897 149.125 149.125-66.897 149.125-149.125 149.125zm0-268.25c-65.686 0-119.125 53.439-119.125 119.125s53.439 119.125 119.125 119.125 119.125-53.439 119.125-119.125-53.439-119.125-119.125-119.125z" data-original="#000000" class="active-path" data-old_color="#000000" fill="#FFFFFF"/></g><g><path d="m241 0h30v80.378h-30z" data-original="#000000" class="active-path" data-old_color="#000000" fill="#FFFFFF"/></g><g><path d="m54.102 107.905h30v80.378h-30z" transform="matrix(.5 -.866 .866 .5 -93.703 133.891)" data-original="#000000" class="active-path" data-old_color="#000000" fill="#FFFFFF"/></g><g><path d="m28.913 348.906h80.378v30h-80.378z" transform="matrix(.866 -.5 .5 .866 -172.696 83.306)" data-original="#000000" class="active-path" data-old_color="#000000" fill="#FFFFFF"/></g><g><path d="m241 431.622h30v80.378h-30z" data-original="#000000" class="active-path" data-old_color="#000000" fill="#FFFFFF"/></g><g><path d="m427.898 323.717h30v80.378h-30z" transform="matrix(.5 -.866 .866 .5 -93.702 565.514)" data-original="#000000" class="active-path" data-old_color="#000000" fill="#FFFFFF"/></g><g><path d="m402.709 133.095h80.378v30h-80.378z" transform="matrix(.866 -.5 .5 .866 -14.71 241.292)" data-original="#000000" class="active-path" data-old_color="#000000" fill="#FFFFFF"/></g><g><path d="m128.161 34.866h30v51.38h-30z" transform="matrix(.866 -.5 .5 .866 -11.098 79.693)" data-original="#000000" class="active-path" data-old_color="#000000" fill="#FFFFFF"/></g><g><path d="m4.631 241h51.38v30h-51.38z" data-original="#000000" class="active-path" data-old_color="#000000" fill="#FFFFFF"/></g><g><path d="m117.471 436.444h51.38v30h-51.38z" transform="matrix(.5 -.866 .866 .5 -319.381 349.7)" data-original="#000000" class="active-path" data-old_color="#000000" fill="#FFFFFF"/></g><g><path d="m353.84 425.754h30v51.38h-30z" transform="matrix(.866 -.5 .5 .866 -176.306 244.9)" data-original="#000000" class="active-path" data-old_color="#000000" fill="#FFFFFF"/></g><g><path d="m455.989 241h51.38v30h-51.38z" data-original="#000000" class="active-path" data-old_color="#000000" fill="#FFFFFF"/></g><g><path d="m343.15 45.556h51.38v30h-51.38z" transform="matrix(.5 -.866 .866 .5 131.975 349.701)" data-original="#000000" class="active-path" data-old_color="#000000" fill="#FFFFFF"/></g></g></g> </svg>
