<?xml version="1.0"?>
<svg xmlns="http://www.w3.org/2000/svg" xmlns:xlink="http://www.w3.org/1999/xlink" version="1.1" id="Capa_1" x="0px" y="0px" viewBox="0 0 343.304 343.304" style="enable-background:new 0 0 343.304 343.304;" xml:space="preserve" width="512px" height="512px"><g><g>
	<g>
		<path d="M278.495,283.135l-207.033-1.011c-15.35,0-30.011-4.814-42.362-13.922c-3.333-2.458-4.043-7.154-1.584-10.487    c2.458-3.334,7.154-4.044,10.487-1.585c9.753,7.192,21.336,10.994,33.496,10.994l207.032,1.011    c27.429,0,49.773-22.344,49.773-49.809s-22.345-49.809-49.81-49.809c-4.143,0-7.5-3.358-7.5-7.5s3.357-7.5,7.5-7.5    c35.736,0,64.81,29.073,64.81,64.809S314.231,283.135,278.495,283.135z" data-original="#000000" class="active-path" data-old_color="#000000" fill="#FFFFFF"/>
	</g>
	<g>
		<path d="M7.5,218.126c-4.142,0-7.5-3.358-7.5-7.5c0-39.424,32.074-71.499,71.499-71.499c9.67,0,19.126,1.934,27.897,5.661    c3.336-47.22,42.82-84.62,90.875-84.62c20.982,0,41.464,7.307,57.672,20.575c15.98,13.081,27.141,31.347,31.427,51.435    c0.864,4.051-1.719,8.036-5.771,8.9c-4.051,0.863-8.034-1.719-8.899-5.77c-7.435-34.847-38.736-60.139-74.429-60.139    c-41.963,0-76.104,34.14-76.104,76.104c0,1.609,0.122,3.273,0.25,5.034l0.038,0.523c0.207,2.857-1.231,5.582-3.707,7.023    c-2.477,1.441-5.556,1.346-7.938-0.244c-9.293-6.204-20.121-9.482-31.313-9.482C40.345,154.128,15,179.473,15,210.626    C15,214.768,11.642,218.126,7.5,218.126z" data-original="#000000" class="active-path" data-old_color="#000000" fill="#FFFFFF"/>
	</g>
</g></g> </svg>
