<?xml version="1.0"?>
<svg xmlns="http://www.w3.org/2000/svg" id="Capa_1" enable-background="new 0 0 512 512" height="512px" viewBox="0 0 512 512" width="512px"><g><g><g><path d="m406.625 301.125h-331.375c-41.493 0-75.25-33.757-75.25-75.25 0-39.832 31.108-72.534 70.305-75.089 17.239-36.536 54.284-60.411 95.32-60.411 4.268 0 8.53.257 12.753.768 24.954-37.89 67.399-61.018 113.205-61.018 45.338 0 87.691 22.87 112.711 60.276.779-.018 1.556-.026 2.33-.026 58.105 0 105.376 47.271 105.376 105.375s-47.271 105.375-105.375 105.375zm-331.375-120.5c-24.951 0-45.25 20.299-45.25 45.25s20.299 45.25 45.25 45.25h331.375c41.562 0 75.375-33.813 75.375-75.375s-33.813-75.375-75.375-75.375c-2.843 0-5.747.167-8.631.495-5.96.679-11.749-2.258-14.723-7.466-18.764-32.863-53.896-53.278-91.688-53.278-38.498 0-73.949 20.985-92.519 54.765-3.23 5.875-9.965 8.891-16.5 7.394-5.52-1.267-11.22-1.909-16.94-1.909-31.984 0-60.577 20.27-71.15 50.439-2.26 6.449-8.583 10.555-15.404 9.987-1.418-.119-2.668-.177-3.82-.177z" data-original="#000000" class="active-path" data-old_color="#000000" fill="#FFFFFF"/></g><g><path d="m75.25 391.625c-8.284 0-15-6.716-15-15v-30.25c0-8.284 6.716-15 15-15s15 6.716 15 15v30.25c0 8.284-6.716 15-15 15z" data-original="#000000" class="active-path" data-old_color="#000000" fill="#FFFFFF"/></g><g><path d="m135.5 481.875c-8.284 0-15-6.716-15-15v-30.25c0-8.284 6.716-15 15-15s15 6.716 15 15v30.25c0 8.284-6.716 15-15 15z" data-original="#000000" class="active-path" data-old_color="#000000" fill="#FFFFFF"/></g><g><path d="m195.75 391.625c-8.284 0-15-6.716-15-15v-30.25c0-8.284 6.716-15 15-15s15 6.716 15 15v30.25c0 8.284-6.716 15-15 15z" data-original="#000000" class="active-path" data-old_color="#000000" fill="#FFFFFF"/></g><g><path d="m256 481.875c-8.284 0-15-6.716-15-15v-30.25c0-8.284 6.716-15 15-15s15 6.716 15 15v30.25c0 8.284-6.716 15-15 15z" data-original="#000000" class="active-path" data-old_color="#000000" fill="#FFFFFF"/></g><g><path d="m316.25 391.625c-8.284 0-15-6.716-15-15v-30.25c0-8.284 6.716-15 15-15s15 6.716 15 15v30.25c0 8.284-6.716 15-15 15z" data-original="#000000" class="active-path" data-old_color="#000000" fill="#FFFFFF"/></g><g><path d="m376.5 481.875c-8.284 0-15-6.716-15-15v-30.25c0-8.284 6.716-15 15-15s15 6.716 15 15v30.25c0 8.284-6.716 15-15 15z" data-original="#000000" class="active-path" data-old_color="#000000" fill="#FFFFFF"/></g><g><path d="m436.75 391.625c-8.284 0-15-6.716-15-15v-30.25c0-8.284 6.716-15 15-15s15 6.716 15 15v30.25c0 8.284-6.716 15-15 15z" data-original="#000000" class="active-path" data-old_color="#000000" fill="#FFFFFF"/></g></g></g> </svg>
